<mxfile host="www.draw.io" modified="2020-03-11T17:22:19.786Z" agent="Mozilla/5.0 (Windows NT 10.0; Win64; x64) AppleWebKit/537.36 (KHTML, like Gecko) Chrome/80.0.3987.132 Safari/537.36" etag="OoLMZCcbqS-bK0h6CC-r" version="12.8.2" type="github">
  <diagram id="-Knro7iIvr_-B3o6s4ao" name="第 1 页">
    <mxGraphModel dx="1403" dy="726" grid="1" gridSize="10" guides="1" tooltips="1" connect="1" arrows="1" fold="1" page="1" pageScale="1" pageWidth="827" pageHeight="1169" math="0" shadow="0">
      <root>
        <mxCell id="0" />
        <mxCell id="1" parent="0" />
        <mxCell id="ZxJP3PbZOqRX26u-WClF-28" style="edgeStyle=orthogonalEdgeStyle;rounded=0;comic=0;jumpStyle=none;jumpSize=16;orthogonalLoop=1;jettySize=auto;html=1;exitX=0.5;exitY=1;exitDx=0;exitDy=0;entryX=0.5;entryY=0;entryDx=0;entryDy=0;shadow=0;startSize=9;endArrow=classic;endFill=1;endSize=16;" parent="1" source="ZxJP3PbZOqRX26u-WClF-14" target="ZxJP3PbZOqRX26u-WClF-15" edge="1">
          <mxGeometry relative="1" as="geometry" />
        </mxCell>
        <mxCell id="ZxJP3PbZOqRX26u-WClF-14" value="&lt;font color=&quot;#ffffff&quot;&gt;&lt;font style=&quot;font-size: 18px&quot;&gt;MonoHook&lt;/font&gt;&lt;br&gt;&lt;/font&gt;" style="rounded=1;whiteSpace=wrap;html=1;fillColor=#EA6B66;strokeColor=#999999;strokeWidth=2;shadow=0;" parent="1" vertex="1">
          <mxGeometry x="30" y="970" width="160" height="66" as="geometry" />
        </mxCell>
        <mxCell id="ZxJP3PbZOqRX26u-WClF-29" style="edgeStyle=orthogonalEdgeStyle;rounded=0;comic=0;jumpStyle=none;jumpSize=16;orthogonalLoop=1;jettySize=auto;html=1;exitX=0.5;exitY=1;exitDx=0;exitDy=0;entryX=0.5;entryY=0;entryDx=0;entryDy=0;shadow=0;startSize=9;endArrow=classic;endFill=1;endSize=16;" parent="1" source="ZxJP3PbZOqRX26u-WClF-15" target="ZxJP3PbZOqRX26u-WClF-16" edge="1">
          <mxGeometry relative="1" as="geometry" />
        </mxCell>
        <mxCell id="ZxJP3PbZOqRX26u-WClF-15" value="&lt;span style=&quot;color: rgb(255 , 255 , 255) ; font-size: 18px&quot;&gt;获取&lt;/span&gt;&lt;font color=&quot;#ffffff&quot;&gt;&lt;font style=&quot;font-size: 18px&quot;&gt;TargetMethod&lt;br&gt;函数地址&lt;/font&gt;&lt;br&gt;&lt;/font&gt;" style="rounded=1;whiteSpace=wrap;html=1;fillColor=#EA6B66;strokeColor=#999999;strokeWidth=2;" parent="1" vertex="1">
          <mxGeometry x="30" y="1060" width="160" height="66" as="geometry" />
        </mxCell>
        <mxCell id="ZxJP3PbZOqRX26u-WClF-30" style="edgeStyle=orthogonalEdgeStyle;rounded=0;comic=0;jumpStyle=none;jumpSize=16;orthogonalLoop=1;jettySize=auto;html=1;exitX=0.5;exitY=1;exitDx=0;exitDy=0;entryX=0.5;entryY=0;entryDx=0;entryDy=0;shadow=0;startSize=9;endArrow=classic;endFill=1;endSize=16;" parent="1" source="ZxJP3PbZOqRX26u-WClF-16" target="ZxJP3PbZOqRX26u-WClF-18" edge="1">
          <mxGeometry relative="1" as="geometry" />
        </mxCell>
        <mxCell id="ZxJP3PbZOqRX26u-WClF-16" value="&lt;span style=&quot;color: rgb(255 , 255 , 255) ; font-size: 18px&quot;&gt;计算&lt;/span&gt;&lt;span style=&quot;color: rgb(255 , 255 , 255) ; font-size: 18px&quot;&gt;TargetMethod函数&lt;/span&gt;&lt;span style=&quot;color: rgb(255 , 255 , 255) ; font-size: 18px&quot;&gt;指令长度&lt;/span&gt;&lt;font color=&quot;#ffffff&quot;&gt;&lt;br&gt;&lt;/font&gt;" style="rounded=1;whiteSpace=wrap;html=1;fillColor=#EA6B66;strokeColor=#999999;strokeWidth=2;" parent="1" vertex="1">
          <mxGeometry x="30" y="1150" width="160" height="66" as="geometry" />
        </mxCell>
        <mxCell id="ZxJP3PbZOqRX26u-WClF-17" value="&lt;p style=&quot;line-height: 180% ; font-size: 18px&quot;&gt;&lt;font color=&quot;#ae4132&quot; style=&quot;font-size: 18px&quot;&gt;&lt;span&gt;开源反编译引擎LDasm&lt;br&gt;&lt;/span&gt;&lt;/font&gt;&lt;span style=&quot;color: rgb(174 , 65 , 50)&quot;&gt;backupL&lt;/span&gt;&lt;span style=&quot;color: rgb(174 , 65 , 50)&quot;&gt;en = LDasm.size(&lt;/span&gt;&lt;span style=&quot;color: rgb(174 , 65 , 50)&quot;&gt;TargetMehtodPtr, len(跳转指令长度));&lt;/span&gt;&lt;/p&gt;" style="shape=callout;whiteSpace=wrap;html=1;perimeter=calloutPerimeter;fillColor=#f8cecc;strokeColor=#b85450;size=17;position=0.08;position2=0.06;base=19;flipV=0;flipH=0;" parent="1" vertex="1">
          <mxGeometry x="200" y="1106" width="550" height="80" as="geometry" />
        </mxCell>
        <mxCell id="ZxJP3PbZOqRX26u-WClF-31" style="edgeStyle=orthogonalEdgeStyle;rounded=0;comic=0;jumpStyle=none;jumpSize=16;orthogonalLoop=1;jettySize=auto;html=1;exitX=0.5;exitY=1;exitDx=0;exitDy=0;entryX=0.5;entryY=0;entryDx=0;entryDy=0;shadow=0;startSize=9;endArrow=classic;endFill=1;endSize=16;" parent="1" source="ZxJP3PbZOqRX26u-WClF-18" target="ZxJP3PbZOqRX26u-WClF-19" edge="1">
          <mxGeometry relative="1" as="geometry" />
        </mxCell>
        <mxCell id="ZxJP3PbZOqRX26u-WClF-18" value="&lt;font color=&quot;#ffffff&quot;&gt;&lt;span style=&quot;font-size: 18px&quot;&gt;备份TargetMethod函数指令&lt;/span&gt;&lt;br&gt;&lt;/font&gt;" style="rounded=1;whiteSpace=wrap;html=1;fillColor=#EA6B66;strokeColor=#999999;strokeWidth=2;" parent="1" vertex="1">
          <mxGeometry x="30" y="1240" width="160" height="66" as="geometry" />
        </mxCell>
        <mxCell id="ZxJP3PbZOqRX26u-WClF-22" style="edgeStyle=orthogonalEdgeStyle;orthogonalLoop=1;jettySize=auto;html=1;exitX=0.5;exitY=1;exitDx=0;exitDy=0;entryX=0.5;entryY=0;entryDx=0;entryDy=0;endArrow=classic;endFill=0;rounded=0;startSize=9;endSize=16;jumpStyle=none;comic=0;shadow=0;jumpSize=16;" parent="1" source="ZxJP3PbZOqRX26u-WClF-19" target="ZxJP3PbZOqRX26u-WClF-21" edge="1">
          <mxGeometry relative="1" as="geometry" />
        </mxCell>
        <mxCell id="ZxJP3PbZOqRX26u-WClF-19" value="&lt;font color=&quot;#ffffff&quot;&gt;&lt;span style=&quot;font-size: 18px&quot;&gt;改写TargetMethod函数指令&lt;/span&gt;&lt;br&gt;&lt;/font&gt;" style="rounded=1;whiteSpace=wrap;html=1;fillColor=#EA6B66;strokeColor=#999999;strokeWidth=2;" parent="1" vertex="1">
          <mxGeometry x="30" y="1330" width="160" height="66" as="geometry" />
        </mxCell>
        <mxCell id="ZxJP3PbZOqRX26u-WClF-21" value="&lt;font color=&quot;#ffffff&quot;&gt;&lt;span style=&quot;font-size: 18px&quot;&gt;改写ProxyMethod&lt;br&gt;函数指令&lt;/span&gt;&lt;br&gt;&lt;/font&gt;" style="rounded=1;whiteSpace=wrap;html=1;fillColor=#EA6B66;strokeColor=#999999;dashed=1;shadow=0;strokeWidth=2;comic=0;" parent="1" vertex="1">
          <mxGeometry x="30" y="1420" width="160" height="66" as="geometry" />
        </mxCell>
        <mxCell id="ZxJP3PbZOqRX26u-WClF-23" value="&lt;p style=&quot;line-height: 0% ; font-size: 18px&quot;&gt;&lt;span style=&quot;color: rgb(174 , 65 , 50)&quot;&gt;byte* ptr = ProxyMehtodPtr.ToPointer();&lt;/span&gt;&lt;br&gt;&lt;/p&gt;&lt;span style=&quot;color: rgb(174 , 65 , 50) ; font-size: 18px&quot;&gt;&lt;font style=&quot;font-size: 18px&quot;&gt;for(i=0; i &amp;lt; backup.length; i++) *ptr++ = backup[i];&lt;/font&gt;&lt;br&gt;&lt;/span&gt;" style="shape=callout;whiteSpace=wrap;html=1;perimeter=calloutPerimeter;fillColor=#f8cecc;strokeColor=#b85450;size=17;position=0.07;position2=0.04;rotation=0;flipV=0;flipH=0;" parent="1" vertex="1">
          <mxGeometry x="200" y="1390" width="550" height="80" as="geometry" />
        </mxCell>
        <mxCell id="ZxJP3PbZOqRX26u-WClF-26" value="&lt;p style=&quot;line-height: 60% ; font-size: 18px&quot;&gt;&lt;font style=&quot;font-size: 18px&quot;&gt;&lt;span style=&quot;color: rgb(174 , 65 , 50)&quot;&gt;byte* ptr = TargetMehtodPtr.ToPointer();&lt;/span&gt;&lt;br&gt;&lt;/font&gt;&lt;/p&gt;&lt;p style=&quot;line-height: 110% ; font-size: 18px&quot;&gt;&lt;span style=&quot;color: rgb(174 , 65 , 50)&quot;&gt;&lt;font style=&quot;font-size: 18px&quot;&gt;for(i=0; i &amp;lt;&amp;nbsp;&lt;/font&gt;&lt;/span&gt;&lt;span style=&quot;color: rgb(174 , 65 , 50)&quot;&gt;backupL&lt;/span&gt;&lt;span style=&quot;color: rgb(174 , 65 , 50)&quot;&gt;en&lt;/span&gt;&lt;span style=&quot;color: rgb(174 , 65 , 50)&quot;&gt;&lt;font style=&quot;font-size: 18px&quot;&gt;; i++) backup[i] = *ptr++;&lt;/font&gt;&lt;/span&gt;&lt;/p&gt;" style="shape=callout;whiteSpace=wrap;html=1;perimeter=calloutPerimeter;fillColor=#f8cecc;strokeColor=#b85450;size=15;position=0.08;position2=0.06;flipV=0;flipH=0;" parent="1" vertex="1">
          <mxGeometry x="200" y="1201" width="550" height="80" as="geometry" />
        </mxCell>
        <mxCell id="QaXeI7x1e-ukclEm1-BY-3" value="&lt;p style=&quot;line-height: 180% ; font-size: 18px&quot;&gt;&lt;span style=&quot;color: rgb(174 , 65 , 50)&quot;&gt;跳转指令 + ReplaceMethod函数指令&lt;/span&gt;&lt;font color=&quot;#ae4132&quot; style=&quot;font-size: 18px&quot;&gt;&lt;span&gt;&lt;br&gt;&lt;/span&gt;&lt;/font&gt;&lt;span style=&quot;color: rgb(174 , 65 , 50)&quot;&gt;arm32平台伪码：LDR PC, [PC, #-4], ReplaceMehtodPtr&lt;/span&gt;&lt;br&gt;&lt;/p&gt;" style="shape=callout;whiteSpace=wrap;html=1;perimeter=calloutPerimeter;fillColor=#f8cecc;strokeColor=#b85450;size=17;position=0.08;position2=0.06;base=19;flipV=0;flipH=0;" vertex="1" parent="1">
          <mxGeometry x="200" y="1295" width="550" height="80" as="geometry" />
        </mxCell>
      </root>
    </mxGraphModel>
  </diagram>
</mxfile>
